HIERARCHY
ROOT Hips
{
    OFFSET 0.000000 0.000000 0.000000
    CHANNELS 6 Xposition Yposition Zposition Zrotation Xrotation Yrotation
    JOINT Spine
    {
        OFFSET -0.000000 14.517291 0.000000
        CHANNELS 3 Zrotation Xrotation Yrotation
        JOINT Spine1
        {
            OFFSET -0.000000 37.558300 0.000000
            CHANNELS 3 Zrotation Xrotation Yrotation
            JOINT Neck
            {
                OFFSET -0.000000 37.404057 3.400369
                CHANNELS 3 Zrotation Xrotation Yrotation
                JOINT Head
                {
                    OFFSET -0.000000 24.785618 -3.540803
                    CHANNELS 3 Zrotation Xrotation Yrotation
                    End Site
                    {
                        OFFSET -0.000000 35.408028 0.000000
                    }
                }
            }
            JOINT LeftShoulder
            {
                OFFSET 6.992933 33.973492 -0.192664
                CHANNELS 3 Zrotation Xrotation Yrotation
                JOINT LeftArm
                {
                    OFFSET 21.527611 0.000000 0.000000
                    CHANNELS 3 Zrotation Xrotation Yrotation
                    JOINT LeftForeArm
                    {
                        OFFSET 56.353916 0.000000 0.000000
                        CHANNELS 3 Zrotation Xrotation Yrotation
                        JOINT LeftHand
                        {
                            OFFSET 47.774071 0.000000 0.000000
                            CHANNELS 3 Zrotation Xrotation Yrotation
                            End Site
                            {
                                OFFSET 26.556021 0.000000 0.000000
                            }
                        }
                    }
                }
            }
            JOINT RightShoulder
            {
                OFFSET -7.065357 33.973492 -0.192664
                CHANNELS 3 Zrotation Xrotation Yrotation
                JOINT RightArm
                {
                    OFFSET -21.527611 0.000000 0.000000
                    CHANNELS 3 Zrotation Xrotation Yrotation
                    JOINT RightForeArm
                    {
                        OFFSET -56.353916 0.000000 0.000000
                        CHANNELS 3 Zrotation Xrotation Yrotation
                        JOINT RightHand
                        {
                            OFFSET -47.774071 0.000000 0.000000
                            CHANNELS 3 Zrotation Xrotation Yrotation
                            End Site
                            {
                                OFFSET -26.556021 0.000000 0.000000
                            }
                        }
                    }
                }
            }
        }
    }
    JOINT LeftUpLeg
    {
        OFFSET 17.704014 0.000000 0.000000
        CHANNELS 3 Zrotation Xrotation Yrotation
        JOINT LeftLeg
        {
            OFFSET -0.000000 -81.181816 0.000000
            CHANNELS 3 Zrotation Xrotation Yrotation
            JOINT LeftFoot
            {
                OFFSET -0.000000 -62.821102 0.000000
                CHANNELS 3 Zrotation Xrotation Yrotation
                JOINT LeftToeBase
                {
                    OFFSET -0.000000 -11.507608 26.556021
                    CHANNELS 3 Zrotation Xrotation Yrotation
                    End Site
                    {
                        OFFSET -0.000000 0.000000 7.081605
                    }
                }
            }
        }
    }
    JOINT RightUpLeg
    {
        OFFSET -17.704014 0.000000 0.000000
        CHANNELS 3 Zrotation Xrotation Yrotation
        JOINT RightLeg
        {
            OFFSET -0.000000 -81.181816 0.000000
            CHANNELS 3 Zrotation Xrotation Yrotation
            JOINT RightFoot
            {
                OFFSET -0.000000 -62.821102 0.000000
                CHANNELS 3 Zrotation Xrotation Yrotation
                JOINT RightToeBase
                {
                    OFFSET -0.000000 -11.507608 26.556021
                    CHANNELS 3 Zrotation Xrotation Yrotation
                    End Site
                    {
                        OFFSET -0.000000 0.000000 7.081605
                    }
                }
            }
        }
    }
}
MOTION
Frames:    12
Frame Time:    0.008333
19.535929    153.874939    -105.949959    0.855754    -7.233620    40.149845    -2.816463    1.158117    -1.033154    -2.395803    2.517429    -0.301948    2.101406    2.760018    -18.004850    16.822601    6.386390    -17.634834    4.904773    8.111438    -18.201981    -27.381430    22.336086    -52.918831    -4.445122    -8.381895    -106.466393    7.719848    -14.863079    -9.853136    -5.695189    1.814064    -1.301934    22.516375    -14.823943    48.049633    -15.548271    -17.186708    37.068378    6.420268    -10.054762    36.102318    16.985407    -1.851006    0.053182    -15.479478    38.982704    -17.214806    8.673759    -29.550306    45.434978    0.000000    0.000000    0.000000    -19.111189    -15.804318    -13.248530    13.107684    32.258347    -14.009434    6.766928    1.290569    -17.888058    0.000000    0.000000    0.000000    
19.501707    153.879196    -105.923485    0.860584    -7.243097    40.163826    -2.809433    1.160618    -1.026264    -2.401898    2.510958    -0.299558    2.119364    2.753923    -18.015285    16.790806    6.382690    -17.650244    4.910132    8.115143    -18.203903    -27.378054    22.328482    -52.920113    -4.442256    -8.362794    -106.482521    7.711161    -14.841427    -9.849945    -5.682433    1.848790    -1.277714    22.515663    -15.029718    48.181396    -15.679829    -17.306009    38.099155    6.431370    -9.970417    36.153175    17.002754    -1.832412    0.049293    -15.465931    38.951580    -17.241798    8.659058    -29.540520    45.442280    0.000000    0.000000    0.000000    -19.095560    -15.796494    -13.250386    13.101344    32.275116    -14.015591    6.767677    1.280837    -17.865841    0.000000    0.000000    0.000000    
19.466078    153.884323    -105.898819    0.869093    -7.251155    40.175117    -2.803312    1.168850    -1.014426    -2.416393    2.498847    -0.295574    2.115423    2.767646    -18.034473    16.807528    6.364499    -17.665609    4.919139    8.109674    -18.196695    -27.352900    22.357145    -52.941822    -4.422966    -8.384566    -106.487366    7.745069    -14.841763    -9.860695    -5.697569    1.831591    -1.268377    22.623446    -15.261183    48.313179    -15.716924    -17.317326    39.218487    6.321698    -9.835840    36.109924    17.018921    -1.812895    0.029394    -15.465374    38.920761    -17.262354    8.650913    -29.535145    45.458176    0.000000    0.000000    0.000000    -19.085449    -15.791052    -13.251860    13.106987    32.292545    -14.020325    6.766558    1.266212    -17.866554    0.000000    0.000000    0.000000    
19.432095    153.889847    -105.869507    0.881219    -7.259404    40.194939    -2.798160    1.166491    -1.009100    -2.439728    2.505329    -0.293166    2.120365    2.756386    -18.043242    16.814302    6.371504    -17.676165    4.936714    8.095145    -18.192217    -27.353243    22.371202    -52.949059    -4.422712    -8.389324    -106.495789    7.720185    -14.845284    -9.865336    -5.714845    1.828577    -1.263931    22.747662    -15.439530    48.365524    -15.776340    -17.432564    40.457848    6.264461    -9.758212    36.140575    17.030159    -1.791127    0.022281    -15.448920    38.886677    -17.266279    8.616671    -29.534107    45.433620    0.000000    0.000000    0.000000    -19.079081    -15.776913    -13.251573    13.116387    32.309746    -14.019086    6.758122    1.250237    -17.873758    0.000000    0.000000    0.000000    
19.389894    153.896576    -105.838776    0.884964    -7.271593    40.209770    -2.799447    1.170921    -0.996223    -2.443695    2.501848    -0.288978    2.116677    2.758971    -18.063568    16.837675    6.362862    -17.693863    4.945938    8.096309    -18.189886    -27.349209    22.352634    -52.960674    -4.439510    -8.354589    -106.499565    7.726956    -14.834304    -9.864937    -5.732158    1.821150    -1.267415    22.878584    -15.688444    48.471905    -15.755857    -17.431429    41.652008    6.115367    -9.630064    36.079979    17.050119    -1.776088    0.041352    -15.404556    38.867805    -17.304621    8.587839    -29.525263    45.412163    0.000000    0.000000    0.000000    -19.055147    -15.772710    -13.258204    13.103715    32.335381    -14.020258    6.782156    1.231782    -17.877081    0.000000    0.000000    0.000000    
19.348034    153.905838    -105.810318    0.883671    -7.281488    40.235981    -2.798101    1.170228    -0.997074    -2.444978    2.502534    -0.289174    2.114211    2.737393    -18.068474    16.845829    6.379851    -17.701006    4.942609    8.086161    -18.192122    -27.344999    22.364710    -52.954498    -4.440259    -8.361625    -106.509041    7.721591    -14.844384    -9.888034    -5.749923    1.803008    -1.268820    22.997587    -15.905563    48.582310    -15.765698    -17.431940    42.823708    6.005550    -9.482184    36.004974    17.074190    -1.780370    0.043319    -15.373865    38.865482    -17.315355    8.548537    -29.513496    45.367939    0.000000    0.000000    0.000000    -19.035250    -15.761004    -13.270352    13.109724    32.341850    -14.039913    6.767453    1.225716    -17.865993    0.000000    0.000000    0.000000    
19.307905    153.913086    -105.783798    0.874097    -7.289420    40.263092    -2.785280    1.162448    -0.996341    -2.458254    2.494559    -0.288756    2.120698    2.733478    -18.076080    16.846447    6.381562    -17.710098    4.949061    8.094275    -18.198195    -27.341661    22.354284    -52.957428    -4.445818    -8.356800    -106.508362    7.728476    -14.847521    -9.886689    -5.763967    1.808271    -1.270927    23.094158    -16.094933    48.685829    -15.775555    -17.520212    43.979271    5.934552    -9.409519    35.994812    17.106379    -1.795094    0.037573    -15.360302    38.869587    -17.343204    8.519553    -29.502529    45.360916    0.000000    0.000000    0.000000    -19.010616    -15.755612    -13.277392    13.111213    32.347221    -14.061720    6.767269    1.223517    -17.851862    0.000000    0.000000    0.000000    
19.264091    153.918335    -105.754639    0.864097    -7.307155    40.293373    -2.765824    1.161191    -0.991812    -2.478072    2.492096    -0.286743    2.128544    2.739598    -18.088074    16.870739    6.370945    -17.720028    4.964460    8.090129    -18.215246    -27.360117    22.342657    -52.945690    -4.454445    -8.343698    -106.508537    7.715091    -14.844826    -9.890746    -5.772411    1.788675    -1.265199    23.195280    -16.288025    48.759491    -15.806534    -17.511644    45.106113    5.861231    -9.227236    36.058418    17.154005    -1.800846    0.004379    -15.380622    38.858097    -17.351524    8.515004    -29.488874    45.367538    0.000000    0.000000    0.000000    -18.975880    -15.744646    -13.298725    13.100700    32.361061    -14.052328    6.766809    1.210225    -17.858494    0.000000    0.000000    0.000000    
19.222639    153.920990    -105.727341    0.850006    -7.321743    40.329182    -2.750881    1.153944    -0.995929    -2.474264    2.487321    -0.288263    2.111542    2.734042    -18.099173    16.884924    6.388183    -17.731102    4.951210    8.083388    -18.231285    -27.363472    22.352119    -52.922630    -4.444396    -8.364797    -106.514084    7.709745    -14.852169    -9.884496    -5.809206    1.713594    -1.306166    23.270761    -16.336420    48.849926    -15.841837    -17.684250    46.240387    5.911056    -9.187449    36.122730    17.194880    -1.815342    -0.021137    -15.377041    38.856609    -17.368050    8.497498    -29.490335    45.369205    0.000000    0.000000    0.000000    -18.944981    -15.734831    -13.327191    13.093949    32.375294    -14.067224    6.774095    1.194954    -17.844149    0.000000    0.000000    0.000000    
19.182550    153.923981    -105.697929    0.845062    -7.339280    40.364441    -2.743611    1.153538    -0.990632    -2.480037    2.480824    -0.286332    2.109929    2.732917    -18.114254    16.901758    6.403521    -17.747705    4.962344    8.095428    -18.258127    -27.368456    22.337851    -52.916828    -4.447367    -8.377673    -106.510681    7.677583    -14.865879    -9.889557    -5.825992    1.719815    -1.299859    23.367750    -16.539749    48.909138    -15.820693    -17.736912    47.432301    5.871598    -9.074832    36.020172    17.233860    -1.818889    -0.056271    -15.389152    38.848831    -17.381985    8.493191    -29.479605    45.380470    0.000000    0.000000    0.000000    -18.921713    -15.719824    -13.338049    13.109571    32.391346    -14.095007    6.757647    1.181014    -17.838963    0.000000    0.000000    0.000000    
19.145363    153.925354    -105.669151    0.844201    -7.357024    40.397175    -2.740562    1.156254    -0.994533    -2.475282    2.474815    -0.287886    2.100745    2.750144    -18.121851    16.920650    6.389182    -17.750534    4.951188    8.092776    -18.258421    -27.375191    22.342749    -52.908726    -4.463802    -8.379026    -106.511658    7.715538    -14.891404    -9.886556    -5.873033    1.730090    -1.277680    23.470396    -16.702271    48.963188    -15.892678    -17.790720    48.586056    5.765653    -8.945474    35.945957    17.265862    -1.810253    -0.102505    -15.402053    38.821720    -17.375702    8.502932    -29.466475    45.387669    0.000000    0.000000    0.000000    -18.901478    -15.699133    -13.360668    13.108169    32.405670    -14.078317    6.768115    1.162064    -17.846926    0.000000    0.000000    0.000000    
19.110397    153.928040    -105.640396    0.851108    -7.370279    40.433422    -2.751678    1.159394    -0.991389    -2.470424    2.474433    -0.287089    2.101212    2.753919    -18.134886    16.932838    6.388144    -17.763092    4.955876    8.097492    -18.269258    -27.389469    22.337198    -52.910618    -4.461460    -8.389467    -106.511124    7.717457    -14.897401    -9.864425    -5.895794    1.719744    -1.272976    23.603319    -16.929026    49.034138    -15.869876    -17.770378    49.743851    5.678291    -8.774825    35.843254    17.286474    -1.800655    -0.125612    -15.386657    38.802097    -17.399845    8.487847    -29.462513    45.380062    0.000000    0.000000    0.000000    -18.895178    -15.677669    -13.366021    13.134932    32.419868    -14.112695    6.765200    1.142660    -17.843534    0.000000    0.000000    0.000000    
